<svg version="1.1" id="Layer_1" xmlns="http://www.w3.org/2000/svg" xmlns:xlink="http://www.w3.org/1999/xlink" x="0px" y="0px" width="100%" viewBox="0 0 1600 1600" enable-background="new 0 0 1600 1600" xml:space="preserve">

<path fill="#00F0FF" opacity="1.000000" stroke="none" d="
M987.015381,660.022644 
	C994.091492,662.726807 1000.854065,665.211975 1007.356812,668.252869 
	C1008.474915,668.775757 1008.939026,671.662354 1008.943481,673.458923 
	C1009.032959,709.458313 1009.010559,745.458008 1009.010681,781.457642 
	C1009.010742,795.290833 1008.991882,809.124084 1009.027283,822.957153 
	C1009.033875,825.532654 1008.909912,827.152832 1005.639465,828.352661 
	C994.131714,832.574341 982.874634,837.483215 971.545593,842.187073 
	C961.288696,846.445923 951.079407,850.819519 940.817444,855.065918 
	C929.479736,859.757446 918.075134,864.287964 906.757751,869.027405 
	C897.526428,872.893127 888.482910,877.223267 879.172241,880.879211 
	C866.531250,885.842896 853.623840,890.130432 841.001892,895.139587 
	C830.491455,899.310608 820.099670,903.835083 809.895264,908.705688 
	C801.555603,912.686279 794.400757,910.139709 786.851929,906.523621 
	C779.350525,902.930176 771.434143,900.211365 763.750854,896.987244 
	C754.696655,893.187744 745.728821,889.181519 736.662231,885.412598 
	C731.375549,883.214966 725.954468,881.342957 720.619568,879.258606 
	C712.843872,876.220642 705.085876,873.137390 697.330200,870.048584 
	C680.748596,863.444580 664.155273,856.869446 647.601013,850.197449 
	C634.169800,844.784119 620.777832,839.272522 607.390564,833.751099 
	C602.375000,831.682434 597.421753,829.462769 592.162231,827.191895 
	C592.162231,792.495483 592.162231,757.367310 592.162231,721.151001 
	C597.669067,723.550476 602.610535,725.849976 607.664917,727.866150 
	C613.122742,730.043213 618.705933,731.903870 624.196533,734.001709 
	C627.744629,735.357300 631.538452,736.439087 634.587830,738.556885 
	C635.892578,739.463196 635.976746,742.701599 635.933472,744.866638 
	C635.801880,751.461670 635.166992,758.046936 635.045593,764.641907 
	C634.880005,773.638733 635.102600,782.642334 634.967712,791.640259 
	C634.902893,795.967102 636.397034,798.743774 640.661316,800.346375 
	C651.465881,804.406921 662.194031,808.679016 672.880188,813.043884 
	C682.088623,816.805115 691.133118,820.970947 700.367798,824.663635 
	C709.481140,828.307739 718.834656,831.357056 727.912842,835.081604 
	C737.395264,838.971924 746.615417,843.499023 756.072632,847.454956 
	C759.882996,849.048828 764.155212,849.533203 767.976929,851.106445 
	C775.145325,854.057251 782.138123,857.434509 789.205139,860.631836 
	C791.683289,861.753052 794.116516,862.993896 796.654541,863.958374 
	C802.820007,866.301392 807.785889,862.369080 812.992249,860.392212 
	C823.177856,856.524536 833.187500,852.190674 843.247314,847.995361 
	C853.184143,843.851379 863.038879,839.505310 873.029785,835.497681 
	C882.219727,831.811401 891.608582,828.620056 900.788513,824.910278 
	C909.541626,821.373047 918.101685,817.361023 926.816101,813.724060 
	C932.546997,811.332153 938.419678,809.282471 944.194824,806.993591 
	C950.416443,804.527832 956.671082,802.119690 962.743774,799.322510 
	C964.170532,798.665344 965.842590,796.552429 965.851685,795.099426 
	C966.034912,765.934204 966.000488,736.767578 965.965393,707.601257 
	C965.963623,706.100647 965.564819,704.600586 965.313965,702.841553 
	C951.753601,708.259888 938.301758,713.558899 924.912537,719.011536 
	C916.003540,722.639587 907.231262,726.604187 898.312134,730.206116 
	C887.459656,734.588745 876.471130,738.635498 865.627869,743.040222 
	C856.732971,746.653503 848.023499,750.724121 839.123596,754.324341 
	C829.900269,758.055298 820.542908,761.454468 811.254578,765.025696 
	C810.078674,765.477783 808.938477,766.042847 807.828186,766.641846 
	C803.455322,769.001282 799.415894,769.414978 794.514954,767.079651 
	C785.714539,762.886353 776.463684,759.635864 767.387817,756.024658 
	C764.700317,754.955444 761.932495,754.083984 759.262817,752.974426 
	C742.700256,746.091125 726.202637,739.048706 709.584167,732.303894 
	C701.273071,728.930603 692.702087,726.202515 684.343384,722.939758 
	C678.928223,720.825928 673.752197,718.102966 668.350220,715.951172 
	C655.577820,710.863464 642.697449,706.046082 629.936523,700.930481 
	C624.121277,698.599243 618.560791,695.634216 612.752563,693.283386 
	C599.872864,688.070312 586.859924,683.185303 573.996521,677.933350 
	C564.185547,673.927612 554.591064,669.390137 544.771301,665.407288 
	C534.807678,661.366150 524.630005,657.854370 514.649841,653.851929 
	C505.694397,650.260437 496.886017,646.302856 488.000244,642.536377 
	C484.582977,641.087708 481.142761,639.691284 477.692963,638.321594 
	C462.930756,632.460510 448.136353,626.679138 433.418762,620.708374 
	C430.994995,619.725037 428.896118,617.940918 425.521423,615.819092 
	C436.812012,611.424438 446.837646,607.743042 456.686829,603.638367 
	C472.652893,596.984436 488.399750,589.796936 504.432281,583.312256 
	C519.621643,577.168579 535.086121,571.708130 550.374878,565.805603 
	C556.663818,563.377625 562.786133,560.521667 569.025879,557.961975 
	C579.876465,553.510864 590.787659,549.206970 601.620361,544.713440 
	C611.640930,540.556885 621.512207,536.031250 631.595337,532.037109 
	C642.352173,527.776123 653.359863,524.147583 664.108398,519.867065 
	C672.760620,516.421448 681.149536,512.320862 689.730103,508.687622 
	C696.888428,505.656525 704.167419,502.911621 711.371643,499.987305 
	C725.298279,494.334198 739.182495,488.575348 753.135620,482.988556 
	C766.700928,477.557068 780.523071,472.717590 793.852661,466.767426 
	C800.794556,463.668671 806.161621,465.698425 812.210266,468.473663 
	C818.340576,471.286285 824.916870,473.108948 831.167725,475.681213 
	C840.671875,479.592163 850.005005,483.919464 859.518616,487.806000 
	C870.670166,492.361786 881.991333,496.502960 893.136353,501.074005 
	C901.416748,504.470123 909.476135,508.403900 917.745544,511.828613 
	C922.552856,513.819458 927.637878,515.129883 932.497192,517.007080 
	C943.056946,521.086548 953.613098,525.187256 964.055481,529.554993 
	C973.269287,533.408875 982.280029,537.746460 991.472351,541.654236 
	C996.197937,543.663208 1001.176453,545.069458 1005.948608,546.978333 
	C1015.803040,550.920227 1025.573120,555.072693 1035.418945,559.036499 
	C1051.245728,565.408142 1067.133057,571.629395 1082.940552,578.047913 
	C1091.576050,581.554260 1100.057739,585.438965 1108.684692,588.967285 
	C1120.223999,593.686707 1131.841675,598.214111 1143.416870,602.845947 
	C1152.721436,606.569214 1162.027710,610.289062 1171.289185,614.117004 
	C1172.338501,614.550720 1173.102295,615.675720 1173.998291,616.480103 
	C1173.166138,617.324097 1172.487305,618.527344 1171.478638,618.957947 
	C1157.735840,624.824707 1143.965210,630.627563 1130.161133,636.349182 
	C1124.696777,638.614075 1119.123291,640.614502 1113.617310,642.780579 
	C1106.989502,645.388000 1100.387817,648.061462 1093.760864,650.671021 
	C1090.203125,652.071899 1088.875244,654.314880 1088.887695,658.423157 
	C1089.058838,714.588684 1089.084351,770.755249 1088.874878,826.920532 
	C1088.854248,832.468323 1089.894775,836.630249 1094.086426,840.556519 
	C1103.764771,849.622009 1104.011963,861.878174 1098.345337,872.055359 
	C1089.494141,887.951660 1067.956787,889.225403 1056.375000,876.181030 
	C1044.477295,862.780701 1048.493042,846.392822 1060.695679,836.869507 
	C1062.573730,835.403870 1063.833130,831.992798 1063.850464,829.470947 
	C1064.062012,798.639343 1063.988281,767.805847 1063.988037,736.972839 
	C1063.987671,698.639893 1063.961182,660.306946 1064.033081,621.974121 
	C1064.039185,618.727661 1063.533813,617.113098 1059.837524,615.749329 
	C1048.428711,611.539673 1037.426758,606.242737 1026.133179,601.700500 
	C1015.858887,597.568115 1005.360474,593.995361 995.055725,589.935120 
	C988.651672,587.411804 982.445190,584.390930 976.111877,581.682800 
	C968.540955,578.445557 960.959839,575.228271 953.327759,572.139160 
	C943.085632,567.993591 932.759094,564.055908 922.524963,559.891052 
	C904.339478,552.490295 886.205994,544.962036 868.031921,537.533142 
	C855.730835,532.504883 843.427124,527.480469 831.069214,522.594482 
	C821.370789,518.759949 811.721924,514.691406 801.758362,511.702972 
	C798.837646,510.826996 794.777649,512.951660 791.481750,514.294800 
	C785.119019,516.887695 779.033264,520.170898 772.639832,522.675720 
	C764.673828,525.796570 756.408264,528.157043 748.461304,531.321106 
	C737.297974,535.765808 726.324524,540.685486 715.237976,545.325684 
	C710.265686,547.406860 705.215820,549.302856 700.201172,551.282837 
	C700.225830,551.800720 700.250488,552.318604 700.275085,552.836487 
	C728.420776,563.988892 756.914001,574.349976 784.614929,586.515015 
	C812.648193,598.826050 841.945862,608.215210 869.385193,621.881775 
	C869.294617,622.405334 869.204041,622.928833 869.113464,623.452393 
	C860.152954,626.645020 850.679382,628.879883 842.387817,633.321350 
	C835.245422,637.147339 827.355225,638.860779 820.427307,642.902039 
	C816.344727,645.283508 812.457520,645.783752 808.054199,643.133789 
	C804.523438,641.008850 800.430969,639.807800 796.567017,638.247925 
	C783.910828,633.138367 771.256104,628.024658 758.579529,622.965942 
	C749.279724,619.254700 739.916199,615.702148 730.634460,611.947021 
	C710.968750,603.990845 691.329712,595.968567 671.696716,587.931702 
	C663.715698,584.664612 655.599121,581.653442 647.881592,577.842712 
	C642.191895,575.033264 637.203491,576.455078 632.026489,578.500305 
	C618.761108,583.741028 605.479614,588.944763 592.280334,594.348389 
	C576.492859,600.811584 560.773254,607.441528 545.061707,614.087891 
	C543.817932,614.614014 542.866455,615.831238 540.781189,617.549500 
	C547.194763,620.140808 552.640381,622.339722 558.085083,624.541077 
	C566.977905,628.136597 575.829712,631.838318 584.774231,635.300415 
	C593.602539,638.717529 602.610107,641.681274 611.382690,645.230164 
	C621.369507,649.270264 631.141113,653.838684 641.082825,657.994385 
	C653.694458,663.265991 666.373474,668.377197 679.041077,673.514038 
	C694.688354,679.859253 710.378967,686.098328 726.003296,692.499451 
	C738.208130,697.499695 750.310730,702.749512 762.513611,707.754883 
	C774.033203,712.479919 785.588196,717.124939 797.220154,721.562683 
	C799.092224,722.276917 801.706482,722.375854 803.535706,721.648254 
	C812.810669,717.958435 821.909119,713.827759 831.132507,710.003723 
	C836.186096,707.908447 841.431030,706.271851 846.471741,704.148438 
	C854.769775,700.652771 862.873535,696.680664 871.241821,693.371338 
	C879.893921,689.949707 888.851379,687.302307 897.514526,683.906250 
	C906.893616,680.229675 916.066162,676.029541 925.369507,672.155396 
	C930.557251,669.995117 935.880188,668.156677 941.048950,665.954224 
	C949.289612,662.442993 957.368835,658.539185 965.686035,655.227478 
	C969.426392,653.738159 973.471252,653.418457 977.385864,655.720337 
	C980.293640,657.430237 983.526184,658.587891 987.015381,660.022644 
z" style="opacity: 1;"></path>
<path fill="#00F0FF" opacity="1.000000" stroke="none" d="
M987.246460,1100.264893 
	C969.498047,1116.957642 948.957703,1122.336792 926.104370,1115.383667 
	C909.683411,1110.387695 897.582642,1098.983276 889.120117,1084.181519 
	C883.169312,1073.772949 879.718689,1062.405396 877.877075,1050.444336 
	C875.658386,1036.033447 876.569092,1021.752991 881.340576,1008.315613 
	C884.896729,998.300842 890.447571,988.624817 896.817871,980.069519 
	C905.407959,968.533081 917.414246,960.675171 931.736572,957.919067 
	C941.850525,955.972900 952.275146,955.691162 962.374390,959.075928 
	C975.283325,963.402527 985.645203,971.378540 993.818665,982.023926 
	C1001.319885,991.793823 1006.544861,1002.675842 1009.178345,1014.943970 
	C1011.159973,1024.175415 1012.598572,1033.350098 1011.954895,1042.723267 
	C1011.061035,1055.738037 1008.642700,1068.486206 1001.647766,1079.760742 
	C997.313477,1086.746826 992.240601,1093.274658 987.246460,1100.264893 
M910.011597,1013.500854 
	C910.012207,1031.812866 909.945312,1050.125122 910.059570,1068.436523 
	C910.089172,1073.184937 910.120911,1078.053955 911.129822,1082.652954 
	C913.944214,1095.482910 920.960938,1105.319214 933.959290,1109.204468 
	C938.701172,1110.621948 944.111755,1109.880127 949.220032,1109.974243 
	C955.893494,1110.097046 961.597046,1107.301025 966.347473,1103.002930 
	C974.919128,1095.247559 978.926819,1085.247681 978.971497,1073.754150 
	C979.057495,1051.613770 979.050964,1029.472534 978.949951,1007.332153 
	C978.929016,1002.750427 978.764343,998.088745 977.914062,993.606445 
	C975.306763,979.861755 968.394287,969.851501 954.159119,965.487427 
	C936.120605,959.957336 915.991028,970.655029 912.138367,989.561951 
	C910.614136,997.042419 910.673401,1004.845520 910.011597,1013.500854 
z" data-index="2" style="opacity: 1;"></path>
<path fill="#00F0FF" opacity="1.000000" stroke="none" d="
M590.487793,960.975830 
	C590.203247,976.125244 590.203247,990.935974 590.203247,1005.542480 
	C587.539062,1005.542480 585.402893,1005.542480 583.430969,1005.542480 
	C582.961182,1001.426636 582.226257,997.202942 582.042297,992.955383 
	C581.514221,980.763794 565.930847,964.771790 551.048218,966.778076 
	C542.064575,967.989136 532.784607,967.000977 523.321045,967.000977 
	C523.321045,988.305420 523.321045,1009.368469 523.321045,1030.976196 
	C529.403259,1030.976196 535.551025,1031.429688 541.600891,1030.854248 
	C548.242859,1030.222412 552.721252,1023.013428 553.134583,1013.322266 
	C554.843262,1013.322266 556.576477,1013.322266 558.529175,1013.322266 
	C558.529175,1027.600220 558.529175,1042.028076 558.529175,1056.742432 
	C556.982544,1056.742432 555.246399,1056.742432 553.286987,1056.742432 
	C552.499573,1048.217529 549.971191,1040.645508 539.925171,1039.538574 
	C534.546509,1038.945923 529.048767,1039.433350 523.302856,1039.433350 
	C523.302856,1062.017944 523.302856,1084.746460 523.302856,1108.213501 
	C536.767639,1106.673828 550.370117,1110.461670 563.617493,1106.029053 
	C575.892212,1101.921997 583.275330,1090.499756 583.945923,1078.090576 
	C584.205444,1073.287842 583.988281,1068.459473 583.988281,1063.308716 
	C586.590027,1063.308716 588.990906,1063.308716 592.002991,1063.308716 
	C592.002991,1067.793579 592.003052,1072.398438 592.002991,1077.003296 
	C592.002869,1088.506836 591.934937,1100.010864 592.048035,1111.513306 
	C592.077881,1114.547363 591.420959,1116.074463 587.926880,1116.065063 
	C550.761536,1115.963989 513.595764,1115.990356 476.430145,1115.970459 
	C476.115784,1115.970215 475.801514,1115.815430 475.217041,1115.661743 
	C475.037537,1113.702515 474.849548,1111.651001 474.621490,1109.162231 
	C478.838959,1106.882690 483.834534,1107.926636 488.638916,1108.334961 
	C491.348785,1108.565186 492.999542,1108.604248 492.996399,1105.341553 
	C492.952301,1059.510254 492.928772,1013.679016 492.887146,967.847778 
	C492.887024,967.722473 492.694550,967.597229 492.485596,967.342163 
	C486.802460,967.003235 480.995361,966.656921 475.117493,966.306335 
	C475.117493,963.486511 475.117493,961.522888 475.117493,959.263733 
	C476.448242,959.168457 477.732147,958.996643 479.016113,958.996277 
	C514.515381,958.984863 550.014709,958.967468 585.513733,959.063721 
	C587.268005,959.068481 589.019592,960.089355 590.487793,960.975830 
z" data-index="3" style="opacity: 1;"></path>
<path fill="#00F0FF" opacity="1.000000" stroke="none" d="
M713.003418,991.000000 
	C713.003418,1030.128662 713.003418,1068.757324 713.003418,1107.489014 
	C718.098450,1107.954712 722.996887,1109.029419 727.774170,1108.635620 
	C731.423462,1108.334595 730.892639,1110.033203 731.031921,1112.136963 
	C731.211487,1114.849487 730.208557,1116.071167 727.330139,1116.043213 
	C717.168396,1115.944214 707.005066,1116.005371 696.842346,1116.005859 
	C696.009338,1116.005981 695.176331,1116.005859 694.343323,1116.005981 
	C686.102417,1116.006104 686.168579,1116.010986 686.791321,1107.541260 
	C686.888611,1106.217285 686.069885,1104.825806 685.541992,1103.008667 
	C678.793762,1114.310547 668.010803,1118.614990 656.133301,1118.611694 
	C647.462463,1118.609375 639.235718,1114.625488 632.341125,1108.837280 
	C621.368347,1099.625488 612.719360,1088.448364 610.816040,1074.145630 
	C607.401123,1048.483765 610.298828,1028.180298 633.763916,1011.953857 
	C647.973083,1002.127991 663.592834,1002.338196 677.193420,1011.035217 
	C680.541992,1013.176453 683.720825,1015.583191 686.121094,1017.267029 
	C686.121094,1002.288025 686.121094,984.998840 686.121094,967.254639 
	C680.460144,967.254639 675.053894,967.254639 669.317200,967.254639 
	C669.317200,964.418152 669.317200,962.015015 669.317200,958.993103 
	C677.595520,958.993103 686.028320,958.994568 694.461121,958.992615 
	C699.125977,958.991516 703.799133,959.154785 708.452881,958.924866 
	C711.939392,958.752686 713.145874,959.992432 713.069031,963.511658 
	C712.872681,972.503967 713.003479,981.503418 713.003418,991.000000 
M638.005920,1080.461426 
	C637.602173,1088.698730 639.086060,1096.141724 644.344543,1103.064209 
	C652.372253,1113.632080 667.057312,1111.428101 674.255798,1104.318604 
	C684.576538,1094.125366 688.525757,1081.071899 689.763245,1067.437134 
	C691.217957,1051.409180 688.291016,1036.011108 677.985596,1022.746765 
	C670.620544,1013.267029 657.350891,1008.701477 647.101868,1017.046082 
	C641.481689,1021.621948 638.126770,1027.670410 638.056702,1035.048218 
	C637.916260,1049.855103 638.009277,1064.664062 638.005920,1080.461426 
z" data-index="4" style="opacity: 1;"></path>
<path fill="#00F0FF" opacity="1.000000" stroke="none" d="
M819.006836,1006.995972 
	C828.748474,1006.996094 837.991882,1006.996094 847.392334,1006.996094 
	C847.392334,1040.963257 847.392334,1074.136719 847.392334,1107.995850 
	C850.772522,1107.995850 854.362244,1107.995483 857.952026,1107.995850 
	C865.264526,1107.996582 865.264526,1107.996826 864.761780,1116.003540 
	C851.194397,1116.003540 837.583557,1116.079834 823.977905,1115.848999 
	C822.963318,1115.831909 821.216492,1113.668213 821.127991,1112.409668 
	C820.789978,1107.603027 820.991455,1102.758545 820.991455,1097.890137 
	C816.606140,1102.822510 812.616882,1108.054565 807.866760,1112.467651 
	C801.616272,1118.274658 793.712585,1119.492432 785.583557,1117.779541 
	C770.040955,1114.504395 760.255615,1104.956299 756.255371,1089.576782 
	C755.887573,1088.162720 755.992249,1086.608276 755.991333,1085.119019 
	C755.978821,1063.460693 755.905090,1041.801758 756.063293,1020.144592 
	C756.091370,1016.303711 755.150208,1014.577026 751.036316,1014.944336 
	C747.565308,1015.254150 744.040710,1014.904053 740.547302,1015.039307 
	C737.541199,1015.155579 736.952698,1013.569885 736.948303,1010.993530 
	C736.943848,1008.398682 737.579041,1006.940369 740.563721,1006.959290 
	C753.861694,1007.043640 767.160522,1006.995911 781.012878,1006.995911 
	C781.012878,1009.062073 781.012878,1010.833374 781.012878,1012.604736 
	C781.013184,1040.260742 781.083740,1067.917236 780.954102,1095.572632 
	C780.928467,1101.052368 781.699524,1106.038452 786.658325,1109.085449 
	C792.415466,1112.623169 798.010864,1110.230225 803.043213,1107.306030 
	C811.729797,1102.258911 816.012146,1093.591431 818.779419,1084.571289 
	C821.088684,1077.044312 822.431824,1069.020142 822.816040,1061.148560 
	C823.457031,1048.018311 822.990784,1034.833862 822.989014,1021.672241 
	C822.988098,1015.010071 822.986450,1015.009705 816.070312,1015.008179 
	C812.589661,1015.007446 809.108948,1015.008118 805.307983,1015.008118 
	C805.307983,1012.398621 805.307983,1009.998047 805.307983,1006.995789 
	C809.632141,1006.995789 814.070374,1006.995789 819.006836,1006.995972 
z" data-index="5" style="opacity: 1;"></path>
<path fill="#00F0FF" opacity="1.000000" stroke="none" d="
M1052.241455,1097.730347 
	C1059.141479,1106.293701 1068.238281,1109.627075 1078.419312,1110.978760 
	C1096.167603,1113.335327 1116.187134,1092.032593 1111.835449,1074.985229 
	C1109.651978,1066.431885 1103.440430,1060.931641 1095.792847,1057.038818 
	C1085.606079,1051.853516 1075.505493,1046.463745 1065.096802,1041.761719 
	C1057.070801,1038.136108 1050.044922,1033.732422 1044.706421,1026.480591 
	C1037.327881,1016.457825 1035.219971,1005.651367 1036.844360,993.410645 
	C1038.847778,978.314636 1046.923218,967.440796 1059.971191,961.240662 
	C1078.148926,952.602966 1095.623291,954.939819 1111.093140,969.068481 
	C1114.883179,965.458252 1118.717163,961.806152 1122.551025,958.154053 
	C1123.036011,958.501526 1123.520996,958.848999 1124.005981,959.196472 
	C1124.005981,972.455750 1124.072510,985.716064 1123.875732,998.972412 
	C1123.860474,999.996948 1121.965942,1001.834229 1120.995239,1001.801575 
	C1119.633057,1001.755676 1117.621826,1000.612183 1117.100830,999.411865 
	C1114.556763,993.549805 1112.890259,987.273743 1110.026733,981.590942 
	C1105.126709,971.866577 1096.745239,966.900513 1086.040039,964.871582 
	C1076.393677,963.043335 1068.300781,965.160095 1060.417725,970.823181 
	C1048.110718,979.664307 1045.698853,997.559204 1062.357788,1005.869141 
	C1077.655518,1013.500061 1092.959106,1021.259033 1107.539307,1030.144409 
	C1119.215820,1037.260254 1125.042603,1048.956909 1127.021973,1062.498535 
	C1129.247070,1077.721680 1125.377808,1091.116455 1115.107422,1102.560913 
	C1105.296021,1113.493896 1093.088501,1118.540405 1078.273804,1118.131836 
	C1066.039307,1117.794312 1055.904419,1113.291260 1047.029663,1104.799438 
	C1042.759766,1108.789429 1038.547119,1112.725952 1033.302368,1117.627075 
	C1033.302368,1097.642700 1033.302368,1079.458252 1033.302368,1061.285522 
	C1039.926147,1060.743774 1039.641479,1060.763794 1040.073975,1066.923950 
	C1040.871826,1078.289917 1043.549805,1089.037842 1052.241455,1097.730347 
z" data-index="6" style="opacity: 1;"></path>

<path fill="#000101" opacity="1.000000" stroke="none" d="
M638.005920,1079.966797 
	C638.009277,1064.664062 637.916260,1049.855103 638.056702,1035.048218 
	C638.126770,1027.670410 641.481689,1021.621948 647.101868,1017.046082 
	C657.350891,1008.701477 670.620544,1013.267029 677.985596,1022.746765 
	C688.291016,1036.011108 691.217957,1051.409180 689.763245,1067.437134 
	C688.525757,1081.071899 684.576538,1094.125366 674.255798,1104.318604 
	C667.057312,1111.428101 652.372253,1113.632080 644.344543,1103.064209 
	C639.086060,1096.141724 637.602173,1088.698730 638.005920,1079.966797 
z" data-index="8" style="opacity: 1; visibility: hidden;"></path>
</svg>